<?xml version="1.0" encoding="UTF-8" standalone="no"?>
<!-- Created with Inkscape (http://www.inkscape.org/) -->

<svg
   width="68.176491cm"
   height="9.9999971cm"
   viewBox="0 0 681.76491 99.999971"
   version="1.1"
   id="svg1"
   xml:space="preserve"
   xmlns:xlink="http://www.w3.org/1999/xlink"
   xmlns="http://www.w3.org/2000/svg"
   xmlns:svg="http://www.w3.org/2000/svg"><defs
     id="defs1"><linearGradient
       id="linearGradient2"><stop
         style="stop-color:#fffff5;stop-opacity:1;"
         offset="0"
         id="stop1" /><stop
         style="stop-color:#aaa362;stop-opacity:1;"
         offset="1"
         id="stop2" /></linearGradient><radialGradient
       xlink:href="#linearGradient2"
       id="radialGradient4-4-9-1"
       cx="29.020735"
       cy="7.1946554"
       fx="29.020735"
       fy="7.1946554"
       r="50"
       gradientUnits="userSpaceOnUse"
       gradientTransform="matrix(1.7983407,0.48186403,-0.46086145,1.7199582,578.19089,822.2656)" /><filter
       style="color-interpolation-filters:sRGB"
       id="filter2-2-9-5"
       x="-0.025686075"
       y="-0.017771948"
       width="1.0460197"
       height="1.0355231"><feGaussianBlur
         stdDeviation="0.19812923"
         id="feGaussianBlur2-4-6-6" /></filter></defs><g
     id="layer1"
     transform="translate(-95.464852,-1028.096)"><path
       style="font-size:85.2233px;line-height:1.25;font-family:'Microsoft Uighur';-inkscape-font-specification:'Microsoft Uighur';letter-spacing:5.07443px;fill:#b7c4b6;stroke-width:0.0339746"
       d="m 226.78075,1059.993 q -0.56959,0 -0.56959,0.3505 v 7.4047 q 0,1.0515 0.0876,1.7088 0.13145,0.6132 0.52578,0.9639 0.43815,0.3505 1.27062,0.4819 0.83247,0.1314 2.32217,0.2191 l -0.0876,1.7088 q -1.40208,0 -3.11084,-0.044 -1.70877,-0.044 -4.42527,-0.044 -2.01547,0 -3.81186,0.044 -1.75259,0.044 -2.97939,0.044 l -0.0876,-1.4898 q 1.5335,-0.1314 2.45362,-0.3505 0.96391,-0.2629 1.44587,-0.8324 0.52578,-0.5697 0.65722,-1.5337 0.17526,-1.0076 0.17526,-2.6727 v -29.9252 q 0,-1.2707 -0.13144,-1.9717 -0.13144,-0.7448 -0.61341,-1.1391 -0.43814,-0.3944 -1.31443,-0.6135 -0.8763,-0.2191 -2.36599,-0.4819 l -0.17525,-1.3583 q 1.27062,-0.219 2.62887,-0.482 1.40206,-0.3066 2.80412,-0.6134 1.44589,-0.3505 2.80414,-0.6572 1.40207,-0.3505 2.05928,-0.6133 l 0.48196,0.3505 q -0.17526,1.1392 -0.3067,2.6288 -0.13145,1.4459 -0.21907,2.9356 -0.0438,1.4897 -0.0876,2.8041 0,1.3145 0,2.1031 v 18.9718 q 0,0.2628 0.17525,0.3505 0.17526,0.088 0.61341,0.088 0.70104,0 1.57732,-0.5696 0.8763,-0.5696 2.14691,-1.9279 l 2.32219,-2.4973 q 1.09535,-1.1831 1.5335,-1.7527 0.48195,-0.5695 0.48195,-0.9639 0,-0.5696 -0.74484,-0.8324 -0.74484,-0.3068 -2.01547,-0.4383 l 0.13145,-1.402 h 0.83246 q 0.5696,0 1.13919,0.044 0.61341,0 1.13918,0 h 2.49742 q 1.22682,0 2.76032,0 1.53351,-0.044 3.81188,-0.1752 l 0.13143,1.5773 q -0.9201,0.1315 -1.66495,0.2629 -0.70103,0.088 -1.4897,0.3067 -0.74484,0.2191 -1.57732,0.6135 -0.83248,0.3942 -1.70877,1.0952 -1.88402,1.446 -3.3299,2.9357 -1.44588,1.4896 -2.01547,2.1469 -0.52577,0.5258 -0.52577,0.7886 0,0.3066 0.3067,0.6134 l 6.09022,7.3171 q 1.57732,1.8401 2.54124,2.9356 1.00774,1.0953 1.7964,1.6649 0.83247,0.5696 1.75258,0.7887 0.92011,0.1752 2.36598,0.2629 l -0.0876,1.7088 q -1.18299,0 -3.37372,-0.044 -2.19072,-0.044 -4.42527,-0.044 -2.01546,0 -3.46135,0.044 -1.44588,0.044 -2.7165,0.044 l -0.0876,-1.4898 q 1.09537,-0.1314 1.84022,-0.2629 0.78865,-0.1752 0.78865,-0.7886 0,-0.3505 -0.21907,-0.6573 -0.21907,-0.3067 -0.70103,-0.8762 l -6.83507,-7.9305 q -0.26289,-0.3505 -0.56959,-0.5695 -0.26289,-0.2629 -0.65722,-0.2629 z m 50.209,7.8866 q -1.53352,1.9279 -3.02321,3.0669 -1.4897,1.0954 -2.84795,1.7088 -1.35825,0.6135 -2.49742,0.8325 -1.13918,0.219 -1.97166,0.219 -3.0232,0 -5.30155,-1.0076 -2.27836,-1.0078 -3.94332,-2.7603 -1.62114,-1.7526 -2.54124,-4.0748 -0.8763,-2.366 -0.8763,-4.9949 0,-2.9355 1.05155,-5.433 1.09537,-2.5412 2.84795,-4.4252 1.7964,-1.8841 4.11857,-2.9356 2.32218,-1.0954 5.08249,-1.0954 2.27836,0 4.03093,0.6572 1.7964,0.6135 3.11084,1.7965 1.31444,1.1829 2.1031,2.8479 0.78867,1.665 0.78867,3.7243 v 0.6134 l -0.0438,0.6133 q -0.21907,1.183 -1.22681,1.183 H 259.5954 q 0.0438,3.0233 0.83249,5.1263 0.83246,2.1031 2.19071,3.4175 1.40207,1.3144 3.06703,1.9717 1.70876,0.6134 3.28608,0.6134 1.62115,0 3.24229,-0.6134 1.62114,-0.6134 3.41754,-2.4098 z m -7.40466,-11.4357 q 0.87629,0 1.13918,-0.3067 0.26288,-0.3505 0.26288,-1.1391 0,-1.183 -0.35051,-2.1907 -0.35051,-1.0078 -1.09537,-1.7527 -0.70103,-0.7447 -1.66494,-1.1829 -0.92012,-0.4381 -2.10312,-0.4381 -0.96391,0 -1.97165,0.4819 -1.00773,0.4819 -1.8402,1.3583 -0.78866,0.8762 -1.40206,2.1907 -0.56959,1.2706 -0.78867,2.9793 z m 25.01563,-17.8763 q -0.0876,1.1392 -0.17525,2.5413 -0.0438,1.3582 -0.0876,2.7603 -0.0438,1.3583 -0.0876,2.585 0,1.183 0,1.9279 l 7.01034,-0.1314 0.35051,0.3066 -0.13145,2.4098 h -7.2294 v 13.7579 q 0,1.7088 0.21907,2.7603 0.21908,1.0515 0.83248,1.7525 0.61341,0.7011 1.35825,0.9639 0.74485,0.2192 1.66496,0.2192 0.96391,0 1.88402,-0.1754 0.96392,-0.219 1.97166,-0.438 l 0.3067,1.7087 q -1.70878,0.8325 -3.68043,1.402 -1.97165,0.6135 -3.81186,0.6135 -1.70877,0 -2.80413,-0.3505 -1.05155,-0.3068 -1.88403,-1.0955 -0.83247,-0.7886 -1.31444,-2.0592 -0.43815,-1.3145 -0.43815,-3.1985 v -1.183 q 0,-0.7886 0,-2.5412 0.0438,-1.7526 0.0438,-4.6882 v -7.4485 h -3.94332 l -0.3067,-0.3066 0.17526,-1.8841 4.07476,-0.3066 v -3.6367 q 0,-1.0953 -0.0438,-2.2346 0,-1.1391 0,-2.0593 0.65723,-0.2628 1.57733,-0.5695 0.9201,-0.3066 1.7964,-0.6572 0.9201,-0.3505 1.40206,-0.5696 0.52578,-0.2629 0.78867,-0.4381 z m 35.44351,34.5259 q 0.0876,-0.7887 0.13144,-1.6211 0.0438,-0.8764 0.0438,-1.6649 -2.27836,2.0592 -4.60053,2.9793 -2.27835,0.92 -4.68815,0.92 -1.92784,0 -3.2861,-0.5256 -1.35824,-0.5259 -2.36598,-1.6212 -1.00773,-1.1391 -1.57733,-2.8918 -0.56959,-1.7525 -0.56959,-4.2061 v -10.3842 q 0,-1.2267 -0.13143,-1.9278 -0.13144,-0.7011 -0.56959,-1.0954 -0.39434,-0.4381 -1.183,-0.6132 -0.74484,-0.2192 -2.01547,-0.4383 l -0.0876,-1.3583 q 1.40205,-0.1751 2.76031,-0.3505 1.40208,-0.219 2.76032,-0.4381 1.35825,-0.2191 2.54125,-0.4381 1.2268,-0.2629 1.70876,-0.4382 l 0.43814,0.3505 q -0.13144,1.0954 -0.21906,2.366 -0.0438,1.2269 -0.13145,2.4098 -0.0438,1.183 -0.0876,2.2784 0,1.0515 0,1.8403 v 6.3968 q 0,2.0593 0.35052,3.5052 0.39432,1.402 1.05155,2.2784 0.70103,0.8762 1.62113,1.2706 0.92011,0.3505 2.05928,0.3505 1.62114,0 3.19847,-0.701 1.62114,-0.7012 3.02321,-2.1032 v -13.1444 q 0,-1.2267 -0.13145,-1.9278 -0.13145,-0.7011 -0.5696,-1.0954 -0.43813,-0.4381 -1.31443,-0.6132 -0.83247,-0.2192 -2.27835,-0.4383 l -0.0876,-1.3583 q 1.4897,-0.1751 2.93557,-0.3505 1.4897,-0.219 2.84795,-0.4381 1.40207,-0.2191 2.62888,-0.4381 1.2268,-0.2629 1.62113,-0.4382 l 0.48196,0.3505 q -0.13144,1.0954 -0.21907,2.366 -0.0876,1.2269 -0.17526,2.4098 -0.0438,1.183 -0.0876,2.2784 0,1.0515 0,1.8403 v 10.121 q 0,1.2707 0.13145,1.9717 0.13144,0.701 0.56959,1.0954 0.48195,0.3944 1.35825,0.6134 0.8763,0.1752 2.4098,0.3944 l 0.17526,1.3582 q -1.31444,0.1314 -2.7165,0.3506 -1.35825,0.1751 -3.06703,0.3942 -1.70876,0.219 -2.7165,0.4819 -1.00773,0.263 -1.5335,0.4382 z m 27.33781,-44.647 q -0.13144,1.0953 -0.2629,2.585 -0.0876,1.4897 -0.17525,2.9794 -0.0438,1.4458 -0.0876,2.7603 -0.0438,1.3145 -0.0438,2.1031 v 10.6908 q 2.01546,-1.4021 3.98713,-1.9717 2.01546,-0.6134 3.68041,-0.6134 2.89176,0 4.99487,1.0078 2.1469,1.0076 3.63659,2.7164 1.53353,1.7088 2.36599,3.9434 0.83248,2.2345 0.83248,4.732 0,3.1983 -1.18299,5.8273 -1.18299,2.6289 -3.24227,4.5128 -2.01547,1.8841 -4.77579,2.9356 -2.76032,1.0515 -6.26548,1.0515 -2.54125,0 -5.03868,-0.5256 -2.45361,-0.482 -4.68815,-1.6212 0.0876,-3.3299 0.0876,-4.9511 v -30.232 q 0,-1.2707 -0.13144,-2.0155 -0.13144,-0.7886 -0.61341,-1.2269 -0.43815,-0.438 -1.27062,-0.6571 -0.83247,-0.219 -2.27835,-0.4382 l -0.17526,-1.2706 q 1.00773,-0.1752 2.23454,-0.4819 1.22681,-0.3068 2.45362,-0.6573 1.27062,-0.3505 2.89175,-0.7448 1.66496,-0.3943 2.58507,-0.7886 z m -0.56959,38.8197 q 0,0.7887 0.43815,1.5335 0.43813,0.701 1.18299,1.2705 0.74484,0.5258 1.8402,0.8763 1.13919,0.3068 2.05929,0.3068 1.84021,0 3.28609,-0.8763 1.44588,-0.92 2.45361,-2.4098 1.05156,-1.4897 1.53352,-3.3737 0.52576,-1.9278 0.52576,-3.7681 0,-1.9278 -0.61339,-3.8119 -0.61341,-1.884 -1.7964,-3.2861 -1.13919,-1.4458 -2.67269,-2.2784 -1.53351,-0.8324 -3.37372,-0.8324 -1.13918,0 -2.27836,0.3068 -1.13917,0.3066 -2.58505,1.1391 z m 43.50537,-8.5876 q 0.0438,-0.3068 0.0438,-0.7449 v -3.0232 q 0,-2.2346 -1.09535,-3.6805 -1.05155,-1.4897 -2.80414,-1.4897 -0.96391,0 -1.88402,0.482 -0.87629,0.4382 -1.48969,1.183 -0.56959,0.7448 -0.8763,1.7087 -0.26288,0.9639 -0.26288,2.0155 -0.70104,0.5696 -2.23455,0.5696 -1.00774,0 -1.92784,-0.5259 -0.87629,-0.5694 -0.87629,-1.4895 0,-0.701 0.52578,-1.4459 0.56958,-0.7448 1.44587,-1.4458 0.92011,-0.745 2.01548,-1.4022 1.09536,-0.6572 2.23454,-1.1391 2.93558,-1.2707 5.78353,-1.2707 1.70876,0 2.93556,0.3943 1.22681,0.3506 2.14692,1.183 0.9201,0.7887 1.44587,2.0593 0.52578,1.2707 0.52578,3.0232 0,2.6289 -0.0876,6.0903 -0.0876,3.4175 -0.0876,7.4484 0,1.7088 0.56959,2.6727 0.56958,0.9639 1.62113,0.9639 1.05154,0 2.27836,-0.7449 l 0.78866,1.3583 q -1.00774,0.9639 -2.49743,1.5773 -1.44587,0.6135 -2.93557,0.6135 -2.14691,0 -3.46136,-0.8325 -1.27061,-0.8325 -1.70876,-2.4974 -0.43815,0.3066 -1.35825,0.9201 -0.92011,0.6134 -1.79639,1.0953 -0.8763,0.4381 -2.23455,0.9201 -1.35825,0.4819 -2.58506,0.4819 -1.75258,0 -2.93557,-0.5256 -1.18299,-0.5259 -2.05928,-1.4021 -0.83248,-0.9201 -1.31445,-2.0594 -0.43814,-1.1829 -0.43814,-2.4974 0,-2.2346 1.27063,-3.8118 1.31443,-1.6211 3.41754,-2.4975 1.5335,-0.6133 4.07474,-1.2268 2.58506,-0.6571 5.82734,-1.0076 z m -0.0876,9.4201 q 0,-1.8403 0.0438,-3.7242 0.0438,-1.8841 0.0438,-3.7243 -1.18299,0.1314 -2.1031,0.3505 -0.87629,0.2191 -1.88403,0.5257 -0.96391,0.3067 -1.84021,0.7888 -0.83248,0.4381 -1.5335,1.0953 -1.09538,0.964 -1.09538,2.4974 0,1.8403 0.92011,3.0232 0.96393,1.183 2.32217,1.183 1.40207,0 2.62888,-0.482 1.2268,-0.4819 2.49742,-1.5334 z m 27.77596,-39.6522 q -0.17526,1.0953 -0.3067,2.585 -0.13145,1.4897 -0.21908,2.9794 -0.0438,1.4897 -0.0876,2.8041 0,1.3145 0,2.1031 v 11.5234 q 2.23454,-1.5337 4.51289,-2.4976 2.32217,-0.9639 4.86343,-0.9639 1.88401,0 3.28608,0.482 1.40207,0.4819 2.45362,1.5773 1.05154,1.0515 1.66494,2.8042 0.61341,1.7088 0.61341,4.2061 v 11.6986 q 0,1.0515 0.0876,1.7088 0.13145,0.6132 0.56959,0.9639 0.43815,0.3505 1.31444,0.4819 0.87629,0.1314 2.36598,0.2191 l -0.0876,1.7088 q -1.40207,0 -3.24228,-0.044 -1.7964,-0.044 -4.2062,-0.044 -2.32218,0 -3.85568,0.044 -1.5335,0.044 -2.76032,0.044 l -0.13143,-1.4898 q 1.35825,-0.1314 2.19071,-0.3505 0.8763,-0.219 1.31444,-0.701 0.48196,-0.5258 0.61341,-1.4459 0.17525,-0.9639 0.17525,-2.6289 v -8.982 q 0,-3.5489 -1.44587,-5.0825 -1.40208,-1.5335 -3.5928,-1.5335 -1.75258,0 -3.28608,0.5696 -1.53352,0.5258 -3.41754,1.665 v 14.897 q 0,1.0515 0.13145,1.7088 0.13143,0.6132 0.56958,0.9639 0.43814,0.3505 1.27062,0.4819 0.8763,0.1314 2.32216,0.2191 l -0.13143,1.7088 q -1.40207,0 -3.15466,-0.044 -1.70875,-0.044 -4.42525,-0.044 -2.01548,0 -3.63662,0.044 -1.62114,0.044 -2.84795,0.044 l -0.0876,-1.4898 q 1.44588,-0.1314 2.27835,-0.3944 0.8763,-0.2629 1.35825,-0.7885 0.48196,-0.5697 0.61341,-1.5337 0.17525,-1.0076 0.17525,-2.6727 v -29.8376 q 0,-1.2707 -0.17525,-1.9717 -0.13145,-0.7448 -0.61341,-1.1392 -0.43814,-0.3942 -1.35825,-0.6133 -0.9201,-0.2191 -2.40979,-0.4819 l -0.13145,-1.3583 q 1.22681,-0.2191 2.58506,-0.5258 1.40207,-0.3067 2.80413,-0.6135 1.44589,-0.3505 2.84795,-0.701 1.40206,-0.3505 2.14692,-0.6133 z m 42.45383,44.3842 q -1.40206,0 -3.15465,-0.044 -1.75258,-0.044 -3.85568,-0.044 -2.01547,0 -3.72424,0.044 -1.66494,0.044 -2.89175,0.044 l -0.13144,-1.4898 q 1.48969,-0.1314 2.36598,-0.3944 0.9201,-0.2629 1.40206,-0.7885 0.52578,-0.5697 0.65721,-1.5337 0.17527,-1.0076 0.17527,-2.6727 v -11.1726 q 0,-1.2267 -0.13144,-1.9278 -0.13144,-0.7011 -0.56959,-1.0954 -0.39434,-0.4382 -1.22681,-0.6573 -0.78867,-0.219 -2.10309,-0.438 l -0.13145,-1.3145 q 1.09536,-0.2191 2.32217,-0.4819 1.27062,-0.3068 2.58505,-0.6573 1.35826,-0.3505 2.36598,-0.6572 1.05156,-0.3067 1.70878,-0.5696 l 0.52577,0.3505 q -0.13143,0.9202 -0.21907,1.8403 -0.0876,0.8762 -0.0876,1.7963 2.27836,-1.8839 4.8196,-2.9356 2.54125,-1.0515 4.86342,-1.0515 2.49743,0 4.20621,1.0954 1.75257,1.0515 2.62886,3.4176 2.49743,-2.147 4.99486,-3.33 2.54124,-1.183 5.08249,-1.183 1.79639,0 3.11083,0.5258 1.35826,0.482 2.32217,1.5774 0.96393,1.0953 1.53351,2.8041 0.56959,1.665 0.56959,4.0747 v 11.7862 q 0,1.0515 0.13144,1.7088 0.13145,0.6132 0.52578,0.9639 0.43814,0.3505 1.27061,0.4819 0.83249,0.1314 2.23455,0.2191 l -0.0876,1.7088 q -1.40206,0 -3.11083,-0.044 -1.66494,-0.044 -4.03093,-0.044 -2.32218,0 -3.8995,0.044 -1.53352,0.044 -2.76032,0.044 l -0.13145,-1.4898 q 1.35825,-0.1314 2.19074,-0.3505 0.83247,-0.219 1.27061,-0.701 0.43815,-0.5258 0.5696,-1.4459 0.13144,-0.9639 0.13144,-2.6289 v -8.982 q 0,-3.5052 -1.31444,-5.0386 -1.31444,-1.5774 -3.28609,-1.5774 -1.62115,0 -3.3299,0.7449 -1.66495,0.7448 -3.50517,2.0154 0.0876,0.6134 0.13144,1.2707 0.0876,0.6134 0.0876,1.3144 v 11.7862 q 0,1.0515 0.13144,1.7088 0.13144,0.6132 0.52576,0.9639 0.43815,0.3505 1.27064,0.4819 0.83247,0.1314 2.23454,0.2191 l -0.0876,1.7088 q -1.40206,0 -3.11083,-0.044 -1.66495,-0.044 -4.03094,-0.044 -2.32216,0 -3.89949,0.044 -1.53351,0.044 -2.76031,0.044 l -0.13144,-1.4898 q 1.35824,-0.1314 2.19072,-0.3505 0.83247,-0.219 1.27062,-0.701 0.43815,-0.5258 0.56959,-1.4459 0.13145,-0.9639 0.13145,-2.6289 v -8.982 q 0,-3.5052 -1.31445,-5.0386 -1.31443,-1.5774 -3.28608,-1.5774 -1.53351,0 -3.32991,0.701 -1.7964,0.6573 -3.5928,1.8841 v 14.5465 q 0,1.0515 0.0876,1.7088 0.13145,0.6132 0.5696,0.9639 0.43814,0.3505 1.27061,0.4819 0.8763,0.1314 2.32217,0.2191 z m 57.04406,-14.1521 q 0.0438,-0.3068 0.0438,-0.7449 v -3.0232 q 0,-2.2346 -1.09538,-3.6805 -1.05155,-1.4897 -2.80413,-1.4897 -0.96392,0 -1.88402,0.482 -0.87629,0.4382 -1.4897,1.183 -0.56959,0.7448 -0.87628,1.7087 -0.2629,0.9639 -0.2629,2.0155 -0.70102,0.5696 -2.23453,0.5696 -1.00774,0 -1.92785,-0.5259 -0.87629,-0.5694 -0.87629,-1.4895 0,-0.701 0.52578,-1.4459 0.56959,-0.7448 1.44589,-1.4458 0.9201,-0.745 2.01546,-1.4022 1.09537,-0.6572 2.23454,-1.1391 2.93557,-1.2707 5.78352,-1.2707 1.70876,0 2.93558,0.3943 1.22681,0.3506 2.14691,1.183 0.92011,0.7887 1.44588,2.0593 0.52577,1.2707 0.52577,3.0232 0,2.6289 -0.0876,6.0903 -0.0876,3.4175 -0.0876,7.4484 0,1.7088 0.56959,2.6727 0.56959,0.9639 1.62114,0.9639 1.05155,0 2.27836,-0.7449 l 0.78866,1.3583 q -1.00773,0.9639 -2.49743,1.5773 -1.44588,0.6135 -2.93558,0.6135 -2.14692,0 -3.46134,-0.8325 -1.27063,-0.8325 -1.70878,-2.4974 -0.43814,0.3066 -1.35825,0.9201 -0.9201,0.6134 -1.7964,1.0953 -0.87628,0.4381 -2.23453,0.9201 -1.35826,0.4819 -2.58506,0.4819 -1.75258,0 -2.93558,-0.5256 -1.18299,-0.5259 -2.05929,-1.4021 -0.83247,-0.9201 -1.31443,-2.0594 -0.43814,-1.1829 -0.43814,-2.4974 0,-2.2346 1.27061,-3.8118 1.31445,-1.6211 3.41754,-2.4975 1.53351,-0.6133 4.07476,-1.2268 2.58505,-0.6571 5.82733,-1.0076 z m -0.0876,9.4201 q 0,-1.8403 0.0438,-3.7242 0.0438,-1.8841 0.0438,-3.7243 -1.183,0.1314 -2.1031,0.3505 -0.87629,0.2191 -1.88402,0.5257 -0.96393,0.3067 -1.84022,0.7888 -0.83247,0.4381 -1.53351,1.0953 -1.09535,0.964 -1.09535,2.4974 0,1.8403 0.9201,3.0232 0.96391,1.183 2.32216,1.183 1.40207,0 2.62888,-0.482 1.22681,-0.4819 2.49743,-1.5334 z m 27.73214,-8.1057 q -0.56959,0 -0.56959,0.3505 v 7.4047 q 0,1.0515 0.0876,1.7088 0.13143,0.6132 0.52576,0.9639 0.43815,0.3505 1.27064,0.4819 0.83247,0.1314 2.32216,0.2191 l -0.0876,1.7088 q -1.40207,0 -3.11084,-0.044 -1.70877,-0.044 -4.42527,-0.044 -2.01546,0 -3.81186,0.044 -1.75258,0.044 -2.97939,0.044 l -0.0876,-1.4898 q 1.53351,-0.1314 2.45361,-0.3505 0.96392,-0.2629 1.44588,-0.8324 0.52578,-0.5697 0.65722,-1.5337 0.17527,-1.0076 0.17527,-2.6727 v -29.9252 q 0,-1.2707 -0.13146,-1.9717 -0.13144,-0.7448 -0.61339,-1.1391 -0.43815,-0.3944 -1.31444,-0.6135 -0.87629,-0.2191 -2.36599,-0.4819 l -0.17526,-1.3583 q 1.27062,-0.219 2.62887,-0.482 1.40208,-0.3066 2.80414,-0.6134 1.44588,-0.3505 2.80412,-0.6572 1.40207,-0.3505 2.05929,-0.6133 l 0.48197,0.3505 q -0.17527,1.1392 -0.30671,2.6288 -0.13144,1.4459 -0.21907,2.9356 -0.0438,1.4897 -0.0876,2.8041 0,1.3145 0,2.1031 v 18.9718 q 0,0.2628 0.17526,0.3505 0.17525,0.088 0.6134,0.088 0.70103,0 1.57733,-0.5696 0.87629,-0.5696 2.14691,-1.9279 l 2.32217,-2.4973 q 1.09537,-1.1831 1.53351,-1.7527 0.48196,-0.5695 0.48196,-0.9639 0,-0.5696 -0.74485,-0.8324 -0.74485,-0.3068 -2.01546,-0.4383 l 0.13144,-1.402 h 0.83247 q 0.56959,0 1.13918,0.044 0.6134,0 1.13919,0 h 2.49742 q 1.22682,0 2.76032,0 1.5335,-0.044 3.81186,-0.1752 l 0.13144,1.5773 q -0.9201,0.1315 -1.66495,0.2629 -0.70103,0.088 -1.48969,0.3067 -0.74485,0.2191 -1.57732,0.6135 -0.83248,0.3942 -1.70877,1.0952 -1.88403,1.446 -3.32991,2.9357 -1.44588,1.4896 -2.01547,2.1469 -0.52577,0.5258 -0.52577,0.7886 0,0.3066 0.3067,0.6134 l 6.09023,7.3171 q 1.57732,1.8401 2.54124,2.9356 1.00773,1.0953 1.7964,1.6649 0.83247,0.5696 1.75257,0.7887 0.92011,0.1752 2.36599,0.2629 l -0.0876,1.7088 q -1.18299,0 -3.37373,-0.044 -2.19073,-0.044 -4.42527,-0.044 -2.01547,0 -3.46134,0.044 -1.44588,0.044 -2.71651,0.044 l -0.0876,-1.4898 q 1.09537,-0.1314 1.84022,-0.2629 0.78866,-0.1752 0.78866,-0.7886 0,-0.3505 -0.21907,-0.6573 -0.21908,-0.3067 -0.70104,-0.8762 l -6.83507,-7.9305 q -0.26289,-0.3505 -0.56959,-0.5695 -0.26289,-0.2629 -0.65721,-0.2629 z m 50.20899,7.8866 q -1.5335,1.9279 -3.02319,3.0669 -1.4897,1.0954 -2.84795,1.7088 -1.35825,0.6135 -2.49743,0.8325 -1.13919,0.219 -1.97165,0.219 -3.02321,0 -5.30158,-1.0076 -2.27835,-1.0078 -3.9433,-2.7603 -1.62113,-1.7526 -2.54124,-4.0748 -0.87629,-2.366 -0.87629,-4.9949 0,-2.9355 1.05154,-5.433 1.09537,-2.5412 2.84795,-4.4252 1.7964,-1.8841 4.11857,-2.9356 2.32216,-1.0954 5.08248,-1.0954 2.27836,0 4.03095,0.6572 1.79639,0.6135 3.11083,1.7965 1.31443,1.1829 2.1031,2.8479 0.78866,1.665 0.78866,3.7243 v 0.6134 l -0.0438,0.6133 q -0.21908,1.183 -1.22681,1.183 h -16.25521 q 0.0438,3.0233 0.83248,5.1263 0.83249,2.1031 2.19073,3.4175 1.40207,1.3144 3.06701,1.9717 1.70878,0.6134 3.2861,0.6134 1.62114,0 3.24227,-0.6134 1.62114,-0.6134 3.41754,-2.4098 z m -7.40466,-11.4357 q 0.87629,0 1.13918,-0.3067 0.2629,-0.3505 0.2629,-1.1391 0,-1.183 -0.35053,-2.1907 -0.35052,-1.0078 -1.09536,-1.7527 -0.70104,-0.7447 -1.66496,-1.1829 -0.9201,-0.4381 -2.10309,-0.4381 -0.96393,0 -1.97165,0.4819 -1.00774,0.4819 -1.84022,1.3583 -0.78866,0.8762 -1.40207,2.1907 -0.56959,1.2706 -0.78866,2.9793 z m 31.36875,16.3868 q -0.70103,0 -1.70877,0 -0.96392,-0.044 -2.10309,-0.044 -1.13918,0 -2.32217,0 -1.183,-0.044 -2.23455,-0.044 -2.62887,0 -4.2062,0.044 -1.57731,0.044 -2.80412,0.044 l -0.13145,-1.4898 q 1.44588,-0.1314 2.27837,-0.3505 0.87628,-0.2629 1.31443,-0.8324 0.48196,-0.5697 0.61341,-1.5337 0.17525,-1.0076 0.17525,-2.6727 v -11.1726 q 0,-1.2267 -0.13144,-1.9278 -0.13145,-0.7011 -0.56959,-1.0954 -0.39434,-0.4382 -1.22681,-0.6573 -0.83248,-0.219 -2.23454,-0.438 l -0.13145,-1.3145 q 1.183,-0.2191 2.45361,-0.4819 1.27063,-0.3068 2.89177,-0.6573 1.66495,-0.3505 2.67269,-0.6572 1.05155,-0.3067 1.70877,-0.5696 l 0.52577,0.3505 q -0.21908,1.3583 -0.26289,2.7165 -0.0438,1.3145 -0.0438,2.6289 1.40206,-1.7088 2.54125,-2.8041 1.18299,-1.1392 2.1469,-1.7525 0.96393,-0.6573 1.75259,-0.8764 0.83247,-0.2629 1.62114,-0.2629 1.13917,0 2.10309,0.5696 0.96392,0.5697 0.96392,1.8841 0,0.8763 -0.8763,2.0153 -0.87627,1.1393 -2.32216,2.0156 -0.78866,-0.7011 -1.66495,-1.0516 -0.83248,-0.3944 -1.84022,-0.3944 -1.00773,0 -2.19072,0.8764 -1.18299,0.8762 -1.92784,2.5412 -0.21908,0.482 -0.26289,0.8763 -0.0438,0.3505 -0.0438,0.964 v 10.4717 q 0,1.0515 0.13145,1.7088 0.17525,0.6132 0.74484,0.9639 0.56958,0.3505 1.66495,0.4819 1.09536,0.1314 3.0232,0.2191 z m 21.86099,-2.9357 q 0,0.7449 -0.3067,1.4459 -0.26289,0.6573 -0.74485,1.183 -0.48196,0.4819 -1.13918,0.7449 -0.65722,0.3067 -1.35825,0.3067 -0.74484,0 -1.40207,-0.3067 -0.6134,-0.263 -1.09537,-0.7449 -0.48195,-0.5257 -0.78865,-1.183 -0.26289,-0.701 -0.26289,-1.4459 0,-0.7448 0.26289,-1.402 0.3067,-0.7011 0.78865,-1.1831 0.48197,-0.5256 1.09537,-0.7886 0.65723,-0.3067 1.40207,-0.3067 0.70103,0 1.35825,0.3067 0.65722,0.263 1.13918,0.7886 0.48196,0.482 0.74485,1.1831 0.3067,0.6572 0.3067,1.402 z m 34.17289,-2.7165 q -0.83248,1.6212 -2.01548,2.8041 -1.18299,1.183 -2.62888,2.0156 -1.40206,0.8325 -2.97939,1.2706 -1.57732,0.438 -3.15464,0.438 -2.93557,0 -5.1263,-1.0076 -2.19073,-1.0516 -3.76805,-2.7603 -1.57733,-1.7088 -2.45362,-3.9434 -0.87629,-2.2783 -0.87629,-4.7757 0,-3.0233 1.18299,-5.6083 1.22681,-2.5851 3.24228,-4.513 2.05928,-1.9277 4.73198,-3.0231 2.67268,-1.0954 5.95877,-1.0954 1.57732,0 3.11084,0.2191 1.57732,0.2191 2.97939,0.9639 0.61341,0.3068 0.83246,0.8324 0.2629,0.482 0.2629,1.0516 0,0.7887 -0.61341,1.7526 -0.6134,0.9201 -2.32217,1.6211 h -0.21907 q -1.62114,-1.6649 -3.11083,-2.4536 -1.4897,-0.7886 -3.46135,-0.7886 -1.44588,0 -2.71651,0.7449 -1.27061,0.701 -2.19072,1.9278 -0.9201,1.2267 -1.40207,2.7603 -0.48196,1.5334 -0.48196,3.2422 0,2.147 0.56959,4.0747 0.61341,1.8842 1.75259,3.3738 1.13917,1.4897 2.84795,2.366 1.70875,0.8763 3.54898,0.8763 2.10309,0 4.03093,-0.8763 1.92784,-0.8763 3.11082,-2.7166 z m 8.10323,-6.5721 q 0,-2.8042 1.00773,-5.3016 1.05156,-2.4974 2.80413,-4.3377 1.7964,-1.8402 4.20621,-2.8917 2.4098,-1.0954 5.47681,-1.0954 3.28608,0 5.43301,1.0515 2.14691,1.0078 4.16238,2.8042 2.05929,1.7526 2.97939,4.1624 0.96391,2.3659 0.96391,5.0825 0,2.8478 -1.05154,5.3454 -1.00774,2.4536 -2.80414,4.2937 -1.75257,1.8403 -4.20619,2.9356 -2.40981,1.0515 -5.47682,1.0515 -3.28609,0 -5.73971,-1.0076 -2.4098,-1.0516 -4.16238,-2.8042 -1.70876,-1.7963 -2.67268,-4.1623 -0.92011,-2.4098 -0.92011,-5.1263 z m 14.06447,10.866 q 1.31443,0 2.67269,-0.8764 1.40206,-0.8763 2.27835,-2.3222 0.92011,-1.4458 1.31443,-3.2422 0.43815,-1.7964 0.43815,-3.5927 0,-2.1032 -0.48195,-4.294 -0.43815,-2.1906 -1.44589,-3.9432 -1.00773,-1.7964 -2.62887,-2.8917 -1.57732,-1.0954 -3.24227,-1.0954 -1.35825,0 -2.76032,0.8762 -1.35825,0.8326 -2.23455,2.2784 -0.87629,1.4459 -1.31442,3.2423 -0.39434,1.7964 -0.39434,3.5927 0,2.0156 0.48196,4.2063 0.48196,2.1906 1.4897,3.9872 1.00773,1.7963 2.58505,2.9354 1.62113,1.1393 3.24228,1.1393 z m 35.53112,1.3583 q -1.40206,0 -3.15465,-0.044 -1.75258,-0.044 -3.85567,-0.044 -2.01547,0 -3.72425,0.044 -1.66494,0.044 -2.89175,0.044 l -0.13144,-1.4898 q 1.48969,-0.1314 2.36598,-0.3944 0.9201,-0.2629 1.40207,-0.7885 0.52577,-0.5697 0.65721,-1.5337 0.17526,-1.0076 0.17526,-2.6727 v -11.1726 q 0,-1.2267 -0.13144,-1.9278 -0.13144,-0.7011 -0.56959,-1.0954 -0.39434,-0.4382 -1.22681,-0.6573 -0.78866,-0.219 -2.10309,-0.438 l -0.13145,-1.3145 q 1.09536,-0.2191 2.32217,-0.4819 1.27062,-0.3068 2.58507,-0.6573 1.35824,-0.3505 2.36598,-0.6572 1.05154,-0.3067 1.70876,-0.5696 l 0.52578,0.3505 q -0.13144,0.9202 -0.21908,1.8403 -0.0876,0.8762 -0.0876,1.7963 2.27835,-1.8839 4.8196,-2.9356 2.54124,-1.0515 4.86341,-1.0515 2.49743,0 4.20621,1.0954 1.75257,1.0515 2.62886,3.4176 2.49743,-2.147 4.99486,-3.33 2.54124,-1.183 5.08249,-1.183 1.79639,0 3.11084,0.5258 1.35825,0.482 2.32216,1.5774 0.96393,1.0953 1.53352,2.8041 0.56958,1.665 0.56958,4.0747 v 11.7862 q 0,1.0515 0.13144,1.7088 0.13145,0.6132 0.52578,0.9639 0.43815,0.3505 1.27061,0.4819 0.83249,0.1314 2.23455,0.2191 l -0.0876,1.7088 q -1.40207,0 -3.11084,-0.044 -1.66494,-0.044 -4.03093,-0.044 -2.32218,0 -3.8995,0.044 -1.53352,0.044 -2.76032,0.044 l -0.13145,-1.4898 q 1.35825,-0.1314 2.19074,-0.3505 0.83248,-0.219 1.27063,-0.701 0.43813,-0.5258 0.56958,-1.4459 0.13144,-0.9639 0.13144,-2.6289 v -8.982 q 0,-3.5052 -1.31444,-5.0386 -1.31443,-1.5774 -3.28609,-1.5774 -1.62113,0 -3.3299,0.7449 -1.66495,0.7448 -3.50516,2.0154 0.0876,0.6134 0.13143,1.2707 0.0876,0.6134 0.0876,1.3144 v 11.7862 q 0,1.0515 0.13144,1.7088 0.13144,0.6132 0.52576,0.9639 0.43815,0.3505 1.27064,0.4819 0.83248,0.1314 2.23454,0.2191 l -0.0876,1.7088 q -1.40206,0 -3.11083,-0.044 -1.66495,-0.044 -4.03094,-0.044 -2.32216,0 -3.89949,0.044 -1.53351,0.044 -2.76031,0.044 l -0.13144,-1.4898 q 1.35824,-0.1314 2.19073,-0.3505 0.83246,-0.219 1.27061,-0.701 0.43815,-0.5258 0.56959,-1.4459 0.13145,-0.9639 0.13145,-2.6289 v -8.982 q 0,-3.5052 -1.31445,-5.0386 -1.31443,-1.5774 -3.28608,-1.5774 -1.53351,0 -3.3299,0.701 -1.7964,0.6573 -3.5928,1.8841 v 14.5465 q 0,1.0515 0.0876,1.7088 0.13144,0.6132 0.56959,0.9639 0.43814,0.3505 1.27061,0.4819 0.8763,0.1314 2.32217,0.2191 z"
       id="text9-7-7"
       aria-label="ketubahmaker.com" /><ellipse
       style="fill:url(#radialGradient4-4-9-1);stroke:none;stroke-width:10.0001;stroke-linecap:round;stroke-linejoin:round;stroke-miterlimit:1;paint-order:fill markers stroke"
       id="path1-7-0-5-4"
       cx="665.02429"
       cy="860.92615"
       transform="rotate(30)"
       rx="50"
       ry="50.000004" /><path
       style="mix-blend-mode:normal;fill:#7e4b3a;fill-opacity:1;stroke:#190b08;stroke-width:2;stroke-linecap:square;stroke-linejoin:miter;stroke-dasharray:none;stroke-opacity:1;paint-order:fill markers stroke;filter:url(#filter2-2-9-5)"
       d="m 20.500509,16.272051 c 1.349446,2.090928 2.264853,4.398757 4.730133,5.932069 1.654557,0.414954 3.048296,-0.05803 4.682058,-0.353602 9.920865,16.213034 7.579742,31.609052 5.049023,46.992424 0.550478,0 1.56552,-1.819466 1.980798,-3.104684 0.810626,-0.243492 1.579414,-0.928367 1.63082,-1.248786 0.731751,-4.560561 1.596423,-8.083553 2.199811,-14.082841 0.806927,-4.410821 4.277563,-22.628603 15.742613,-17.62249 10.529337,4.597553 15.116092,18.739742 14.90748,26.741043 -16.240725,1.93945 -28.054735,8.03508 -38.73739,15.192932 l 0.681757,8.346635 C 44.57445,74.268715 59.370315,68.729556 73.844987,67.478687 c 0.457226,-0.0396 1.704318,-9.709351 1.704318,-9.709351 C 75.080601,51.420303 74.65021,46.071134 73.79376,41.721744 72.56132,35.462659 69.846726,29.972169 65.614386,26.642198 59.890008,22.138307 54.319972,21.21371 49.047239,27.108208 45.607867,30.953153 43.006405,36.749979 41.036974,44.48285 40.016423,36.570448 38.444943,28.734525 31.407624,21.657343 42.048537,19.371481 53.776275,15.719548 63.448684,15.780627 81.193218,15.669167 87.096584,33.310012 86.390067,46.62159 86.057254,66.504561 72.317557,80.832091 58.31054,86.115285 47.933633,90.029252 31.8661,85.958174 26.693572,80.153716 c -1.709027,-1.917828 -2.420681,-4.586475 -2.988414,-7.103519 -1.690865,-2.17377 -3.381733,-2.889026 -5.072597,-3.931467 0.430206,2.342058 0.916189,4.72607 2.410254,6.745092 8.671982,11.719023 18.084652,17.019811 29.767953,17.390808 19.86722,0.63088 31.429206,-12.036321 37.23728,-24.73815 3.66894,-8.023684 7.618791,-30.239339 -9.279496,-50.347381 -6.102533,-7.8995 -14.793495,-8.4064974 -24.949235,-7.839343 -10.528973,0.676237 -19.721175,3.648506 -27.998838,5.696243 -1.719713,0.425428 -3.546374,0.252884 -5.31997,0.246052 z"
       id="path8-9-4-9-6-5-6-2"
       transform="matrix(0.97771809,0,0,0.97771809,95.044457,1028.8523)" /><path
       d="m 751.71883,1114.1662 q 8.9078,-6.979 21.15592,-8.3298 -4.45381,-6.5287 -8.90781,-6.5287 0,0 -1.11331,0 -5.3448,0.6754 -5.3448,4.9528 0,1.3509 0.2227,2.2513 -0.4454,1.3508 -2.4495,4.0524 -0.4454,-0.9005 -0.8908,-3.377 -0.2227,-2.7015 -0.2227,-3.1518 -0.2227,-1.5758 -1.3362,-2.7015 -0.8908,-1.1256 -1.7816,-1.3508 -0.8908,-0.4502 -2.44951,-0.6754 -1.5589,-0.4503 -2.0043,-0.6754 -1.7816,-4.0523 -1.7816,-8.1045 0,-2.2513 0.8908,-2.4765 0.6681,0 1.1135,1.1256 0.6681,0.9006 1.5589,1.1257 3.56301,1.1256 5.56731,3.602 0.8908,1.1257 2.0043,6.0785 0.6679,-10.581 6.4581,-10.581 8.90762,0 13.36161,15.759 0.4454,1.801 0.4454,8.5548 -15.81131,2.7016 -23.82831,9.9057 -0.6681,-2.2513 -0.6681,-7.6544 z m -27.70851,-25.6646 q 0.6681,0 2.22699,1.5759 1.78142,1.5758 6.45811,1.5758 2.0043,0 2.0043,8.1047 0,0.6754 -2.0043,2.4764 -2.0043,1.801 -2.0043,2.4764 0,1.5759 0.2227,3.377 0.2227,2.0261 0.2227,3.3769 0,4.2774 -5.79001,7.8795 -5.79,3.8271 -22.04671,8.3298 -0.4454,-2.7016 -0.4454,-4.5027 0,-2.9266 0.2227,-4.2774 6.68081,-1.3507 13.36162,-3.3769 -4.67651,-3.3769 -4.67651,-9.4554 0,-1.8011 0.4454,-5.8533 -3.3405,-0.4503 -5.1221,-2.9267 -1.7816,-2.4764 -1.7816,-5.8534 0,-1.1256 0.8908,-2.9266 0.2227,0 1.3362,1.1256 1.1135,1.1257 4.0086,1.1257 2.00411,0 3.56301,-0.2251 1.1135,0 1.7816,3.1517 0.8908,3.1518 0.8908,4.7278 0,0.225 -0.2227,0.4501 -0.2227,0.2252 -0.8908,0.6755 -0.4454,0.4502 -0.8908,1.3508 -0.6681,1.1256 -0.6681,3.602 0,7.6544 8.2397,8.78 5.12191,-1.5759 5.12191,-6.0785 v -2.2512 q 0,-1.801 0.4454,-4.0523 -6.01271,-1.576 -6.01271,-7.8795 0,-4.5026 1.1135,-4.5026 z m -62.89433,0.6753 q 4.45381,2.0262 8.01701,8.1047 3.7857,6.0785 4.2311,11.2564 3.78571,-0.6754 3.78571,-4.2775 0,-3.1518 -2.89491,-6.0784 -2.227,-1.8011 -2.4497,-2.4764 2.8951,-6.3036 4.454,-7.8795 0.2227,-0.2251 0.4454,-0.2251 0.89061,0 1.11331,1.1256 3.5632,9.4554 3.5632,12.157 0,3.1517 -4.45381,8.78 0.66791,0.2251 1.78141,0.2251 3.5632,0 6.45811,-2.0262 3.1178,-2.2512 4.0086,-4.2775 0,-0.225 -2.6724,-2.9266 -2.44951,-2.7015 -2.44951,-4.9528 0,-1.1257 0.2227,-1.8011 4.23111,-6.0784 5.12191,-6.0784 1.33619,0 1.33619,0.9005 0,0.6754 -0.2227,1.1256 v 0.4503 q 0,1.5759 0.8908,2.4764 3.7857,4.5026 3.7857,5.6283 0,4.5025 -8.01699,11.9318 -7.79431,7.4292 -15.58862,7.4292 -1.3362,0 -1.7816,-0.2251 -2.2268,-0.9006 -2.2268,-2.9267 v -2.2513 q 0,-3.6021 -3.1178,-8.3298 -2.89491,-4.9528 -8.46241,-7.6544 0.4454,-0.6753 1.3362,-2.2512 0.8908,-1.801 1.7816,-2.9267 0.8908,-1.1256 2.0043,-2.0262 z m -20.58249,29.717 q -2.4497,-3.3769 -2.4497,-5.4031 0,-0.9005 0.4454,-1.3507 4.2313,-4.9529 4.2313,-9.6805 0,-1.3509 -0.4454,-1.8011 -2.227,-2.2512 -69.25795,-2.2512 -16.034,0 -44.53882,0.225 -28.50482,0.2251 -37.41262,0.2251 -18.92892,0 -20.26511,-0.4501 -2.6724,-0.9006 -2.6724,-4.5027 0,-0.9004 0.2227,-3.1517 0.4454,-2.2513 0.4454,-3.1518 0,-0.6755 1.1135,-0.6755 0.6681,0 1.1135,0.4503 1.11349,2.0262 4.4538,3.1519 0.6681,0.2251 11.5802,0.2251 9.35301,0 48.99263,-0.2251 39.86232,-0.4503 60.12744,-0.4503 41.86643,0 44.31613,1.1256 2.0043,0.6754 3.5632,4.0523 1.7814,3.1519 1.7814,7.4293 v 0.6754 q -0.2227,10.3558 -5.3446,15.5338 z m -170.1383,-13.7328 q 0.4454,-1.801 1.1135,-1.801 0.66809,0 0.66809,1.5759 v 0.4502 0.6754 q 0,2.0262 3.56301,3.3769 3.78589,1.5759 4.89939,3.377 0,1.1256 -1.7816,5.8533 -0.6681,-0.2252 -2.0043,-0.9005 -1.11349,-0.6754 -1.78159,-0.9005 -0.4454,-0.2252 -1.3362,-0.9006 -0.89061,-0.4502 -1.33601,-0.9004 -0.4454,-0.4503 -1.11349,-1.1257 -0.4454,-0.6754 -0.6681,-1.3508 -0.2227,-0.6754 -0.4454,-1.5759 -0.2227,-0.9005 -0.2227,-2.0262 0,-1.1256 0.4454,-3.8271 z m -105.67823,8.78 q 3.1178,-2.7016 8.46241,-4.7277 5.3446,-2.0262 7.79429,-5.4031 0.4454,-0.9005 0.4454,-1.5759 v -1.1257 q 0,-2.4764 -1.33619,-2.4764 -9.5759,1.1257 -13.13891,1.1257 -1.7816,0 -2.0043,-0.2251 -0.2227,-1.1256 -1.3362,-3.1519 -1.1135,-2.2512 -1.1135,-3.602 0,-1.3508 0.6681,-2.7015 0.2227,-0.6754 0.8908,-0.6754 0,0 1.3362,0.6754 0.2227,0.2251 1.3362,0.2251 0.6681,0 3.11761,-0.2251 2.4497,-0.2252 4.0086,-0.2252 7.12619,0 9.57589,6.3036 0.8908,2.7015 0.8908,5.6282 0,2.4764 -0.4454,7.4293 -0.2227,2.7015 -3.1178,4.5025 -2.89509,2.0262 -7.12619,4.0524 -4.23111,2.2513 -6.45811,4.9528 -2.4497,-2.4764 -2.4497,-8.78 z m -16.12812,-19.1359 q 5.79001,2.4764 5.79001,10.1308 0,4.5025 -2.0043,9.2302 -1.7816,4.7277 -3.5632,6.3037 -2.22681,-6.0785 -2.22681,-7.4293 4.00841,-4.7278 4.00841,-6.7539 0,-0.6753 -0.4454,-2.0262 -3.34031,-3.3768 -15.36591,-4.0522 -0.2227,1.1256 -0.2227,2.9267 0,3.8271 8.017,8.5548 0,3.8272 -1.1135,7.2041 -0.4452,0 -1.336,-0.2251 -0.6681,0 -1.1135,0 -5.34461,0 -6.23541,2.4764 -0.6681,1.5759 -1.5589,1.5759 -0.6681,0 -1.3362,-2.0262 -0.6681,-1.801 -0.6681,-3.3769 0,-3.6021 3.7859,-5.4031 -1.5589,-2.9267 -1.5589,-8.5548 v -3.6021 q -2.6724,-1.1257 -2.6724,-4.5026 0,-0.9005 0.2227,-3.1518 0.4454,-2.2513 0.4454,-3.1518 0,-0.6753 1.3362,-0.6753 0.4454,0 0.8908,0.4502 1.5589,2.4764 3.11761,2.9266 1.7816,0.4503 5.5675,0.9006 3.7857,0.4503 8.2397,2.2513 z m -32.6079,24.3138 q 0,0 -0.8908,-0.9005 -0.6681,-0.9005 -0.6681,-2.0262 0,-0.9004 0.4454,-3.8271 0.4454,-2.9267 0.4454,-4.9528 0,-2.4764 -0.2227,-3.6021 -0.2227,-1.801 -2.0043,-2.7016 -1.5589,-1.1256 -3.5632,-1.3507 -1.78141,-0.4503 -3.34031,-2.2513 -1.3362,-2.0261 -1.3362,-5.6282 0,-3.8272 0.6681,-3.8272 0.4454,0 0.8908,0.4503 0,0 8.23971,3.602 2.44951,1.1257 3.11761,4.0523 0.89079,2.7015 0.89079,9.4555 0,2.4764 -0.44539,7.2041 -0.2227,4.7277 -0.2227,6.7538 0,0.9006 -0.6681,0.9006 -0.8908,0 -1.33601,-1.3509 z m -41.07031,-20.2616 q -1.5589,-3.1517 -1.5589,-7.6543 0,0 0,-2.2513 1.5589,1.576 5.1219,1.576 1.1135,0 2.4497,-0.2252 1.5589,-0.2251 3.56301,-0.4503 2.0043,-0.2251 3.3405,-0.4502 h 0.8908 q 3.34031,0 3.34031,4.2774 0,4.2775 -1.78142,7.8795 4.23112,1.3508 5.56731,2.7015 1.5589,1.3509 1.5589,4.9529 0,5.8534 -4.00859,9.9056 -3.78571,4.2775 -8.01701,5.6283 -4.23111,1.5758 -8.23971,2.0261 l -2.2268,-9.9056 q 12.47081,-0.6755 16.7021,-6.979 0,-0.6754 -0.8908,-1.576 -0.89079,-0.9004 -2.22699,-0.9004 -2.4497,0 -2.4497,-1.576 0,-1.3507 0.8908,-3.1517 l 2.0043,-4.2774 q -7.79431,1.1256 -9.57591,1.1256 -3.1176,0 -4.4538,-0.6755 z m -14.3471,20.2616 q 0,0 -0.89079,-0.9005 -0.6681,-0.9005 -0.6681,-2.0262 0,-0.9004 0.4454,-3.8271 0.4454,-2.9267 0.4454,-4.9528 0,-2.4764 -0.2227,-3.6021 -0.2227,-1.801 -2.0043,-2.7016 -1.5589,-1.1256 -3.56301,-1.3507 -1.7816,-0.4503 -3.3405,-2.2513 -1.3362,-2.0261 -1.3362,-5.6282 0,-3.8272 0.6681,-3.8272 0.4454,0 0.8908,0.4503 0,0 8.23971,3.602 2.44969,1.1257 3.11761,4.0523 0.8908,2.7015 0.8908,9.4555 0,2.4764 -0.4454,7.2041 -0.2227,4.7277 -0.2227,6.7538 0,0.9006 -0.6681,0.9006 -0.89062,0 -1.33602,-1.3509 z m -25.03591,-24.3138 q 5.79,2.4764 5.79,10.1308 0,4.5025 -2.0043,9.2302 -1.7816,4.7277 -3.563,6.3037 -2.227,-6.0785 -2.227,-7.4293 4.0084,-4.7278 4.0084,-6.7539 0,-0.6753 -0.4454,-2.0262 -3.3403,-3.3768 -15.36591,-4.0522 -0.2227,1.1256 -0.2227,2.9267 0,3.8271 8.01701,8.5548 0,3.8272 -1.1135,7.2041 -0.44521,0 -1.33601,-0.2251 -0.6681,0 -1.1135,0 -5.3446,0 -6.2354,2.4764 -0.6681,1.5759 -1.5589,1.5759 -0.6681,0 -1.3362,-2.0262 -0.6681,-1.801 -0.6681,-3.3769 0,-3.6021 3.7859,-5.4031 -1.5589,-2.9267 -1.5589,-8.5548 v -3.6021 q -2.6724,-1.1257 -2.6724,-4.5026 0,-0.9005 0.2227,-3.1518 0.4454,-2.2513 0.4454,-3.1518 0,-0.6753 1.3362,-0.6753 0.4454,0 0.8908,0.4502 1.5589,2.4764 3.1176,2.9266 1.7816,0.4503 5.5675,0.9006 3.78571,0.4503 8.23971,2.2513 z"
       id="text2-4-2-5-7-0"
       style="font-size:116.897px;line-height:0.34;font-family:'Narbonne Custom font';-inkscape-font-specification:'Narbonne Custom font, Normal';text-align:justify;letter-spacing:2.50442px;word-spacing:0px;direction:rtl;white-space:pre;fill:#bfbfbf;stroke:#bebebe;stroke-width:0.657423;stroke-linecap:round;stroke-linejoin:round"
       aria-label="מעשה///  כתובות" /></g></svg>
